<?xml version="1.0" encoding="UTF-8" standalone="no"?>
<!-- Created with Inkscape (http://www.inkscape.org/) -->

<svg
   xmlns:dc="http://purl.org/dc/elements/1.1/"
   xmlns:cc="http://creativecommons.org/ns#"
   xmlns:rdf="http://www.w3.org/1999/02/22-rdf-syntax-ns#"
   xmlns:svg="http://www.w3.org/2000/svg"
   xmlns="http://www.w3.org/2000/svg"
   xmlns:sodipodi="http://sodipodi.sourceforge.net/DTD/sodipodi-0.dtd"
   xmlns:inkscape="http://www.inkscape.org/namespaces/inkscape"
   version="1.1"
   id="svg2"
   width="731"
   height="90.95639"
   viewBox="0 0 731 90.956391"
   sodipodi:docname="PK_logo.svg"
   inkscape:version="0.92.2 5c3e80d, 2017-08-06">
  <metadata
     id="metadata8">
    <rdf:RDF>
      <cc:Work
         rdf:about="">
        <dc:format>image/svg+xml</dc:format>
        <dc:type
           rdf:resource="http://purl.org/dc/dcmitype/StillImage" />
        <dc:title />
      </cc:Work>
    </rdf:RDF>
  </metadata>
  <defs
     id="defs6" />
  <sodipodi:namedview
     pagecolor="#ffffff"
     bordercolor="#666666"
     borderopacity="1"
     objecttolerance="10"
     gridtolerance="10"
     guidetolerance="10"
     inkscape:pageopacity="0"
     inkscape:pageshadow="2"
     inkscape:window-width="1758"
     inkscape:window-height="750"
     id="namedview4"
     showgrid="true"
     inkscape:zoom="1.045683"
     inkscape:cx="372.42618"
     inkscape:cy="39.276927"
     inkscape:window-x="51"
     inkscape:window-y="367"
     inkscape:window-maximized="0"
     inkscape:current-layer="svg2"
     inkscape:pagecheckerboard="true">
    <inkscape:grid
       type="xygrid"
       id="grid4918"
       originx="-23.735933"
       originy="-37.23668" />
  </sodipodi:namedview>
  <path
     inkscape:connector-curvature="0"
     id="path72"
     d="m 0,49.71094 v -29.5 h 14.032119 c 15.39399,0 18.628049,0.78593 23.154263,5.62684 8.035633,8.59433 5.881606,23.82604 -4.145422,29.3134 -3.405981,1.86394 -6.417055,2.543 -12.75,2.8754 L 12,58.46174 v 10.3746 10.374599 H 6 0 Z M 27.698311,45.7097 c 2.755214,-1.92983 3.826455,-6.81765 2.301215,-10.4999 -1.438215,-3.47216 -5.30126,-4.99886 -12.648749,-4.99886 H 12 v 8.5 8.5 h 6.777494 c 4.408465,0 7.526678,-0.52475 8.920817,-1.50124 z M 58,49.71094 v -29.5 h 6 6 v 12.5 12.5 h 11.999997 12 v -12.5 -12.5 h 5.5 H 105 v 29.5 29.499999 h -5.500003 -5.5 v -11.499999 -11.5 h -12 H 70 v 11.5 11.499999 h -6 -6 z m 61.03942,28.749999 c 0.0217,-0.4125 4.91011,-13.574999 10.86319,-29.249999 l 10.82376,-28.5 h 5.23453 5.23452 l 10.25766,27 c 5.64171,14.85 10.57806,28.0125 10.96968,29.249999 0.6827,2.15735 0.47211,2.25 -5.11431,2.25 h -5.82634 l -2.33115,-6.499999 -2.33116,-6.5 H 146 135.1802 l -2.33116,6.5 -2.33115,6.499999 h -5.75895 c -3.16742,0 -5.7412,-0.3375 -5.71952,-0.75 z M 152.01168,54.46094 c 0.0272,-1.7473 -5.42331,-16.25 -6.10721,-16.25 -0.41215,0 -1.29595,1.6875 -1.964,3.75 -0.66804,2.0625 -2.04637,5.8875 -3.06296,8.5 l -1.84833,4.75 h 6.48541 c 3.56698,0 6.49067,-0.3375 6.49709,-0.75 z m 49.691,23.368419 C 180.59202,69.96133 174.31328,44.55118 189.59237,28.81879 c 10.4858,-10.79688 26.77819,-12.21117 39.06046,-3.39071 5.7965,4.16273 6.15647,5.66443 2.15385,8.98546 -1.81867,1.50898 -3.6742,2.7557 -4.1234,2.7705 -0.4492,0.0148 -2.42454,-1.19944 -4.38965,-2.6983 -2.88873,-2.20335 -4.83875,-2.78915 -10.18328,-3.05916 -8.0576,-0.40706 -12.21445,1.52192 -16.59368,7.70025 -2.46927,3.48371 -2.98334,5.1904 -2.98334,9.90463 0,6.72615 2.13775,10.98918 7.80949,15.57346 3.45786,2.79487 4.52546,3.10602 10.65718,3.10602 6.13172,0 7.19932,-0.31115 10.65718,-3.10602 2.11355,-1.70832 4.67174,-4.52082 5.68487,-6.25 l 1.84205,-3.14398 H 220.09205 211 v -5.5 -5.5 h 15 15 v 4.96249 c 0,10.66004 -6.4111,21.22206 -16.07403,26.48128 -6.38011,3.472499 -17.0582,4.472399 -23.22329,2.174649 z M 254,49.71094 v -29.5 h 19 19 v 5 5 H 278.5 265 v 7 7 h 13.5 13.5 v 5.5 5.5 H 278.5 265 v 6.5 6.5 h 13.5 13.5 v 5.5 5.499999 h -19 -19 z m 77,0 v -29.5 h 5.47012 5.47013 l 0.27987,12.64839 0.27988,12.6484 10.45951,-12.6484 10.45952,-12.64839 h 7.30791 7.30791 l -11.48341,13.5035 -11.48341,13.50351 10.78281,14.74649 c 5.93054,8.11058 11.11679,15.308999 11.525,15.996499 0.56431,0.95041 -0.89407,1.25 -6.08499,1.25 h -6.82718 l -8.4114,-11.666199 -8.4114,-11.6662 -2.82043,3.37842 C 342.22516,62.36569 342,63.29701 342,70.92317 v 8.287769 h -5.5 -5.5 z m 123.76778,5.25 L 454.5,30.71094 446.25,30.4205 438,30.13005 V 25.1705 20.21094 h 22 22 v 5 5 h -8 -8 v 24.5 24.499999 h -5.48222 -5.48222 z m 56.93021,22.866079 C 502.09924,74.2517 495.41179,66.82921 492.36072,56.3643 c -5.44324,-18.66985 11.69034,-38.69598 31.56492,-36.89382 6.76899,0.61379 14.26381,4.19649 18.91411,9.04138 l 3.33975,3.4795 -4.49923,3.09555 -4.49924,3.09556 -3.04286,-2.84246 c -8.6017,-8.03519 -23.86663,-5.46215 -29.16081,4.91531 -2.19019,4.29312 -2.61918,12.13146 -0.91075,16.64052 2.35841,6.22452 10.02144,11.25136 17.21551,11.29314 4.46328,0.0259 10.28605,-2.22373 13.45062,-5.19668 2.42698,-2.28004 3.75564,-1.97867 9.069,2.05703 l 2.30173,1.74826 -3.60802,3.71507 c -5.54536,5.709869 -10.81356,7.974389 -19.49545,8.380069 -4.8268,0.22554 -8.85514,-0.1543 -11.30201,-1.06571 z M 560,49.71094 v -29.5 h 5.5 5.5 v 12.5 12.5 h 12 12 v -12.5 -12.5 h 6 6 v 29.5 29.499999 h -6 -6 v -11.499999 -11.5 h -12 -12 v 11.5 11.499999 h -5.5 -5.5 z m 66,0 v -29.5 h 19 19 v 5 5 h -13 -13 v 7 7 h 13 13 v 5.5 5.5 h -13 -13 v 6.5 6.5 h 13 13 v 5.5 5.499999 h -19 -19 z m 57,0 v -29.5 h 4.97703 4.97703 L 706.22703,38.88208 719.5,57.55323 719.77207,38.88208 720.04413,20.21094 H 725.52207 731 v 29.5 29.499999 h -4.85797 -4.85798 L 708.5617,61.22031 C 701.5644,51.32546 695.42549,42.97391 694.91967,42.66129 694.37273,42.32326 694,49.6146 694,60.65192 v 18.559019 h -5.5 -5.5 z"
     style="display:inline;fill:#d77036" />
  <path
     style="opacity:0;fill:#d77036;fill-opacity:1;stroke-width:0.95631284"
     d="m 401.38166,107.71209 c -0.82545,-0.82545 -1.14757,-7.26798 -1.14757,-22.951511 V 62.956646 h 7.6505 7.6505 v 20.498473 c 0,11.27416 -0.41969,21.602331 -0.93264,22.951501 -0.85381,2.24567 -1.40353,2.45304 -6.50293,2.45304 -3.06366,0 -6.08669,-0.51641 -6.71786,-1.14757 z"
     id="path3904"
     inkscape:connector-curvature="0" />
  <path
     style="opacity:0;fill:#d77036;fill-opacity:1;stroke-width:0.95631284"
     d="m 401.38166,107.71209 c -0.82545,-0.82545 -1.14757,-7.26798 -1.14757,-22.951511 V 62.956646 h 7.6505 7.6505 v 20.498473 c 0,11.27416 -0.41969,21.602331 -0.93264,22.951501 -0.85381,2.24567 -1.40353,2.45304 -6.50293,2.45304 -3.06366,0 -6.08669,-0.51641 -6.71786,-1.14757 z"
     id="path3906"
     inkscape:connector-curvature="0" />
  <path
     style="opacity:0;fill:#d77036;fill-opacity:1;stroke-width:0.95631284"
     d="m 401.38166,107.71209 c -0.82545,-0.82545 -1.14757,-7.26798 -1.14757,-22.951511 V 62.956646 h 7.6505 7.6505 v 20.498473 c 0,11.27416 -0.41969,21.602331 -0.93264,22.951501 -0.85381,2.24567 -1.40353,2.45304 -6.50293,2.45304 -3.06366,0 -6.08669,-0.51641 -6.71786,-1.14757 z"
     id="path4713"
     inkscape:connector-curvature="0" />
  <path
     style="opacity:0;fill:#d77036;fill-opacity:1;stroke-width:0.95631284"
     d="m 414.53431,-15.945372 c 0.33959,2.88943 2.98377,12.3214002 5.87595,20.9599202 2.89218,8.6385298 5.51866,18.2163998 5.83664,21.2841698 1.04694,10.1007 -2.89148,19.07283 -10.16723,23.16203 -2.09666,1.17839 -3.8121,2.6938 -3.8121,3.36759 0,1.69199 -3.15189,4.39043 -5.1282,4.39043 -0.89677,0 -2.51917,-1.50619 -3.60533,-3.34709 -1.08616,-1.8409 -2.3477,-3.3471 -2.80341,-3.3471 -1.72048,0 -7.78202,-6.18815 -9.74714,-9.95074 -1.56693,-3.00019 -2.04073,-5.59285 -2.02633,-11.08814 0.0161,-6.14874 0.80439,-9.53459 5.52342,-23.7244798 3.02754,-9.10368 5.74631,-18.8939302 6.04172,-21.7561202 l 0.53709,-5.20398 h 6.42874 6.42873 z m -8.00462,5.17093 c 0,1.9895502 -0.85691,11.32406016 -1.90425,20.74336 -1.96826,17.7017 -2.30052,27.73176 -1.13754,34.33963 0.62536,3.55317 0.91806,3.8458 4.1151,4.11412 3.3111,0.27789 3.46467,0.15075 4.04268,-3.3471 1.08904,-6.59035 0.62896,-19.6466 -1.29074,-36.6287498 -1.0405,-9.20451004 -1.8965,-18.37465 -1.90222,-20.3780902 -0.006,-2.18267 -0.39369,-3.40572 -0.96672,-3.05157 -0.52597,0.32507 -0.95631,2.21885 -0.95631,4.2084 z m 6.74673,21.40075 c 1.3348,12.28918 1.92506,22.37272 1.62139,27.69852 -0.26262,4.60598 -0.15986,8.3745 0.22835,8.3745 1.6135,0 5.76479,-5.23917 7.26605,-9.17016 2.47764,-6.4876 1.39158,-13.82374 -4.76056,-32.1569098 -2.95025,-8.79163 -5.42856,-16.7529302 -5.50737,-17.6917902 -0.0788,-0.93885 -0.32406,-0.50801 -0.54501,0.95741 -0.22095,1.4654302 0.54277,11.36022016 1.69715,21.98843 z M 397.26128,6.0560382 c -2.8899,8.9415198 -5.47684,18.4090198 -5.74877,21.0388798 -0.70846,6.85167 1.10582,12.44097 5.54483,17.08217 l 3.78436,3.95671 -0.57456,-9.08497 c -0.36648,-5.79475 -0.0183,-14.10688 0.96127,-22.95151 1.64985,-14.8958698 2.71616,-31.34059 1.82928,-28.21122 -0.29813,1.05194 -2.90651,9.2284102 -5.79641,18.1699402 z m 8.55117,46.6202498 c 0.21916,0.65746 0.97226,1.19539 1.67355,1.19539 0.7013,0 1.45439,-0.53793 1.67355,-1.19539 0.23703,-0.71111 -0.44097,-1.19539 -1.67355,-1.19539 -1.23258,0 -1.91058,0.48428 -1.67355,1.19539 z"
     id="path4715"
     inkscape:connector-curvature="0" />
  <g
     id="g10"
     transform="matrix(0.12423007,0,0,0.09526174,344.30988,-2.1761228)">
    <g
       id="g8"
       transform="matrix(0.1,0,0,-0.1,0,512)">
      <path
         inkscape:connector-curvature="0"
         style="opacity:1;fill:#d77036;fill-opacity:1;stroke-width:0.72900003"
         id="path4"
         d="m 5716.7248,-4451.6792 c 18.7635,56.2904 23.7121,438.6743 23.7121,1653.7654 l -0.052,1580.722 h -578.885 -576.9261 v -1590.5677 c 1.031,-1226.0198 5.9279,-1604.4342 25.6709,-1653.7656 28.6608,-78.0438 88.9204,-142.2214 160.0568,-171.9128 70.1054,-28.6606 695.4868,-31.6502 773.5306,-2.9896 80.982,29.6397 143.2521,95.8277 172.8922,184.7483 z" />
      <path
         inkscape:connector-curvature="0"
         style="opacity:1;fill:#d77036;fill-opacity:1;stroke-width:0.72900003"
         id="path6"
         d="m 5665.3313,-776.55876 c 8.8663,184.74825 62.2702,520.63558 117.5811,743.890376 53.3523,213.357534 146.242,497.902914 469.2423,1435.459584 170.9334,498.8823 228.2549,696.5176 284.5454,987.9706 101.7559,526.512 20.7739,1058.0243 -223.2547,1464.1202 -51.3935,86.9617 -93.8175,137.3239 -208.4089,251.9154 -154.1288,156.0877 -251.9671,220.3162 -427.7976,287.4833 l -82.9925,31.6511 -30.6194,81.9614 c -75.054,191.6556 -176.8614,321.0932 -286.5043,361.5586 -210.4193,78.043 -396.1985,-52.3737 -515.687,-361.5586 l -30.6196,-81.9614 -82.9924,-31.6511 c -174.8511,-66.1873 -273.6688,-133.3544 -422.8491,-282.5348 -79.023,-79.0229 -158.0463,-167.9434 -184.7482,-210.4193 -195.6251,-308.2058 -290.422,-659.9184 -291.4529,-1073.8496 0,-371.4554 69.1776,-681.6718 314.1857,-1394.9426 445.5817,-1297.15603 486.0469,-1432.46980903 549.2963,-1796.03844 17.7841,-98.81763 37.5786,-256.86409 43.4551,-349.75368 l 11.8561,-167.94364 h 495.8926 l 496.9235,1.03089 z m -217.3266,547.33746 c 28.6606,384.34259 73.0951,827.86225 139.2828,1407.7783 135.3138,1174.6262 172.9439,1676.4983 159.0775,2107.2857 -8.8664,253.9258 -35.5166,580.895 -59.2804,713.3223 -7.8869,49.4349 -12.8355,91.9101 -8.9178,95.8278 13.815,13.8152 148.1492,-84.9511 239.08,-175.8823 C 6223.4939,3612.8637 6366.746,3096.1972 6292.6715,2563.654 6256.1239,2307.8209 6183.0287,2037.0903 6019.0027,1556.9714 5569.5035,238.0621 5529.0382,110.58368 5471.7168,-187.77662 c -20.7739,-107.68395 -29.6402,-122.52981 -23.7121,-41.44468 z m -300.3193,-5.97955 c -22.7842,362.58922 -58.3007,728.11667 -143.3036,1463.14095 -123.4576,1071.9423 -159.0258,1516.4929 -157.0671,1935.3727 2.0104,331.9182 34.5888,698.4247 84.9513,946.4232 l 19.743,92.8374 70.1569,8.9179 c 79.0232,9.8459 335.8873,1.9588 347.7434,-9.8969 29.6401,-29.6404 87.9411,-493.0059 103.7147,-830.8521 21.7018,-460.3759 -12.8355,-935.5462 -153.1494,-2142.8022 C 5246.4,592.71293 5191.089,11.817602 5175.2638,-276.69706 c -4.8456,-93.81748 -9.7942,-169.90248 -10.8252,-172.89226 -1.9588,-1.95883 -9.8456,94.90006 -16.7532,214.38847 z m -309.2369,125.51959 c -58.2494,255.88469 -121.4988,467.28339 -267.7407,894.05001 -335.9389,974.10415 -416.9209,1221.07105 -465.3246,1417.62395 -125.468,518.6767 -123.4577,846.6772 8.9178,1229.9888 71.1363,205.4706 157.067,348.7226 289.4425,481.098 93.869,95.8278 229.2344,195.625 243.0493,181.8105 2.9897,-4.9485 -2.9898,-68.1469 -14.7943,-141.2934 -85.0028,-553.2657 -70.157,-1210.1945 52.3729,-2292.962 C 4808.8083,558.12414 4839.428,266.67134 4861.1812,1.9203334 c 10.8766,-153.1493434 19.743,-280.5762134 17.7842,-282.5350334 -0.9795,-0.97942 -19.7945,75.05398 -40.5169,170.93344 z m 217.3782,4613.60516 c 6.9075,36.5994 75.1057,114.5915 101.756,117.5293 32.63,2.9386 73.0952,-35.5679 100.7765,-92.8374 l 20.7224,-40.5171 -113.612,-1.0308 c -68.1466,1.0308 -111.6532,7.0101 -109.6429,16.856 z" />
      <path
         d="m 5716.7248,-4451.6792 c 18.7635,56.2904 23.7121,438.6743 23.7121,1653.7654 l -0.052,1580.722 h -578.885 -576.9261 v -1590.5677 c 1.031,-1226.0198 5.9279,-1604.4342 25.6709,-1653.7656 28.6608,-78.0438 88.9204,-142.2214 160.0568,-171.9128 70.1054,-28.6606 695.4868,-31.6502 773.5306,-2.9896 80.982,29.6397 143.2521,95.8277 172.8922,184.7483 z"
         id="path4590"
         style="opacity:1;fill:#d77036;fill-opacity:1;stroke-width:0.72900003"
         inkscape:connector-curvature="0" />
      <path
         d="m 5665.3313,-776.55876 c 8.8663,184.74825 62.2702,520.63558 117.5811,743.890376 53.3523,213.357534 146.242,497.902914 469.2423,1435.459584 170.9334,498.8823 228.2549,696.5176 284.5454,987.9706 101.7559,526.512 20.7739,1058.0243 -223.2547,1464.1202 -51.3935,86.9617 -93.8175,137.3239 -208.4089,251.9154 -154.1288,156.0877 -251.9671,220.3162 -427.7976,287.4833 l -82.9925,31.6511 -30.6194,81.9614 c -75.054,191.6556 -176.8614,321.0932 -286.5043,361.5586 -210.4193,78.043 -396.1985,-52.3737 -515.687,-361.5586 l -30.6196,-81.9614 -82.9924,-31.6511 c -174.8511,-66.1873 -273.6688,-133.3544 -422.8491,-282.5348 -79.023,-79.0229 -158.0463,-167.9434 -184.7482,-210.4193 -195.6251,-308.2058 -290.422,-659.9184 -291.4529,-1073.8496 0,-371.4554 69.1776,-681.6718 314.1857,-1394.9426 445.5817,-1297.15603 486.0469,-1432.46980903 549.2963,-1796.03844 17.7841,-98.81763 37.5786,-256.86409 43.4551,-349.75368 l 11.8561,-167.94364 h 495.8926 l 496.9235,1.03089 z m -217.3266,547.33746 c 28.6606,384.34259 73.0951,827.86225 139.2828,1407.7783 135.3138,1174.6262 172.9439,1676.4983 159.0775,2107.2857 -8.8664,253.9258 -35.5166,580.895 -59.2804,713.3223 -7.8869,49.4349 -12.8355,91.9101 -8.9178,95.8278 13.815,13.8152 148.1492,-84.9511 239.08,-175.8823 C 6223.4939,3612.8637 6366.746,3096.1972 6292.6715,2563.654 6256.1239,2307.8209 6183.0287,2037.0903 6019.0027,1556.9714 5569.5035,238.0621 5529.0382,110.58368 5471.7168,-187.77662 c -20.7739,-107.68395 -29.6402,-122.52981 -23.7121,-41.44468 z m -300.3193,-5.97955 c -22.7842,362.58922 -58.3007,728.11667 -143.3036,1463.14095 -123.4576,1071.9423 -159.0258,1516.4929 -157.0671,1935.3727 2.0104,331.9182 34.5888,698.4247 84.9513,946.4232 l 19.743,92.8374 70.1569,8.9179 c 79.0232,9.8459 335.8873,1.9588 347.7434,-9.8969 29.6401,-29.6404 87.9411,-493.0059 103.7147,-830.8521 21.7018,-460.3759 -12.8355,-935.5462 -153.1494,-2142.8022 C 5246.4,592.71293 5191.089,11.817602 5175.2638,-276.69706 c -4.8456,-93.81748 -9.7942,-169.90248 -10.8252,-172.89226 -1.9588,-1.95883 -9.8456,94.90006 -16.7532,214.38847 z m -309.2369,125.51959 c -58.2494,255.88469 -121.4988,467.28339 -267.7407,894.05001 -335.9389,974.10415 -416.9209,1221.07105 -465.3246,1417.62395 -125.468,518.6767 -123.4577,846.6772 8.9178,1229.9888 71.1363,205.4706 157.067,348.7226 289.4425,481.098 93.869,95.8278 229.2344,195.625 243.0493,181.8105 2.9897,-4.9485 -2.9898,-68.1469 -14.7943,-141.2934 -85.0028,-553.2657 -70.157,-1210.1945 52.3729,-2292.962 C 4808.8083,558.12414 4839.428,266.67134 4861.1812,1.9203334 c 10.8766,-153.1493434 19.743,-280.5762134 17.7842,-282.5350334 -0.9795,-0.97942 -19.7945,75.05398 -40.5169,170.93344 z m 217.3782,4613.60516 c 6.9075,36.5994 75.1057,114.5915 101.756,117.5293 32.63,2.9386 73.0952,-35.5679 100.7765,-92.8374 l 20.7224,-40.5171 -113.612,-1.0308 c -68.1466,1.0308 -111.6532,7.0101 -109.6429,16.856 z"
         id="path4592"
         style="opacity:1;fill:#d77036;fill-opacity:1;stroke-width:0.72900003"
         inkscape:connector-curvature="0" />
    </g>
  </g>
</svg>
